<?xml version="1.0" encoding="utf-8"?>
<!-- Generator: Adobe Illustrator 27.5.0, SVG Export Plug-In . SVG Version: 6.00 Build 0)  -->
<svg version="1.1" xmlns="http://www.w3.org/2000/svg" xmlns:xlink="http://www.w3.org/1999/xlink" x="0px" y="0px"
	 viewBox="0 0 750 500" style="enable-background:new 0 0 750 500;" xml:space="preserve">
<g id="BACKGROUND">
	<rect style="fill:#FFFAF0;" width="750" height="500"/>
</g>
<g id="OBJECTS">
	<g>
		<defs>
			<rect id="SVGID_1_" width="750" height="500"/>
		</defs>
		<clipPath id="SVGID_00000085935692546050470640000001487885901199531964_">
			<use xlink:href="#SVGID_1_"  style="overflow:visible;"/>
		</clipPath>
		<path style="clip-path:url(#SVGID_00000085935692546050470640000001487885901199531964_);fill:#FFC36B;" d="M115.3,524.062
			c-0.481,0-0.936-0.286-1.129-0.759c-7.416-18.207-4.829-40.946,6.592-57.93c11.574-17.212,30.767-26.691,54.043-26.691
			c13.54,0,24.077,2.393,32.033,6.122c2.044-3.083,4.811-5.86,8.387-8.119c11.405-7.203,22.046-4.178,33.312-0.972
			c12.504,3.556,25.433,7.232,42.035-1.246c21.093-10.772,21.633-32.651,22.155-53.81c0.405-16.448,0.788-31.984,10.877-41.169
			c19.6-17.842,72.923,4.095,75.183,5.038c0.621,0.259,0.915,0.973,0.656,1.594c-0.259,0.621-0.973,0.914-1.594,0.656
			c-0.54-0.225-54.147-22.291-72.605-5.485c-9.319,8.483-9.689,23.514-10.081,39.427c-0.514,20.852-1.097,44.487-23.483,55.919
			c-17.456,8.916-31.457,4.933-43.81,1.42c-11.194-3.184-20.861-5.934-31.345,0.689c-3.25,2.052-5.706,4.493-7.513,7.144
			c11.16,5.928,16.653,14.61,17.888,22.526c1.161,7.446-1.682,13.814-6.914,15.487c-5.392,1.724-11.199-2.136-14.79-9.835
			c-3.815-8.18-4.23-18.597,0.387-27.17c-7.612-3.517-17.731-5.779-30.778-5.779c-22.439,0-40.914,9.096-52.021,25.613
			c-10.981,16.33-13.476,38.175-6.358,55.652c0.254,0.623-0.046,1.333-0.669,1.587C115.609,524.033,115.454,524.062,115.3,524.062z
			 M207.75,447.966c-4.634,8.578-3.29,18.753-0.343,25.071c3.04,6.518,7.692,9.872,11.839,8.544
			c4.062-1.299,6.22-6.558,5.248-12.791C223.356,461.485,218.215,453.479,207.75,447.966z"/>
		<path style="clip-path:url(#SVGID_00000085935692546050470640000001487885901199531964_);fill:#FFE8D4;" d="M-92.76,77.294
			c0,22.38,42.212,35.009,66.562,46.507c24.35,11.498,18.472,36.577,48.254,20.119c29.782-16.458,50.258-76.771,28.156-110.918
			C29.109,0.4-92.76,24.703-92.76,77.294z"/>
		<path style="clip-path:url(#SVGID_00000085935692546050470640000001487885901199531964_);fill:#FFE8D4;" d="M314.563,504.308
			h441.652V114.274c0,0-159.65-32.753-276.857,90.821C370.977,319.362,404.958,379.854,314.563,504.308z"/>
		<path style="clip-path:url(#SVGID_00000085935692546050470640000001487885901199531964_);fill:#FFD2B4;" d="M756.215,504.308
			h-224.41c0,0,25.347-52.934,37.038-105.32c11.691-52.386,72.573-134.59,187.371-125.237V504.308z"/>
		<path style="clip-path:url(#SVGID_00000085935692546050470640000001487885901199531964_);fill:#FFC36B;" d="M308.52-20.778
			c-16.745,28.333-23.335,86.272,16.408,113.414s99.341-1.523,157.871-6.7c58.529-5.176,86.12,15.31,124.343,78.031
			c38.103,62.523,129.184,83.337,186.554,40.894c42.76-31.634,28.955-204.019-26.226-235.045
			C705.747-64.887,333.522-63.083,308.52-20.778z"/>
		<path style="clip-path:url(#SVGID_00000085935692546050470640000001487885901199531964_);fill:#FFFAF0;" d="M750.287,127.927
			c-4.663,0-9.551-0.779-14.66-2.571c-15.626-5.48-24.787-20.608-33.647-35.239c-8.895-14.69-18.095-29.881-33.825-35.467
			c-2.302-0.817-4.542-1.505-6.707-2.063c-1,7.203-3.586,13.081-7.052,17.101c-4.811,5.58-11.273,7.62-17.734,5.596
			c-4.315-1.352-7.427-4.703-8.324-8.965c-0.961-4.566,0.729-9.271,4.519-12.586c3.537-3.095,11.42-7.143,26.883-3.638
			c0.81-9.238-1.036-20.557-6.997-32.861c-8.127-16.778-22.314-29.849-39.947-36.804c-17.831-7.034-36.857-6.811-53.573,0.628
			c-0.504,0.226-1.096-0.003-1.32-0.507c-0.224-0.505,0.003-1.096,0.508-1.32c17.209-7.659,36.782-7.895,55.12-0.662
			c18.101,7.14,32.666,20.562,41.014,37.792c6.183,12.763,8.049,24.555,7.139,34.204c2.231,0.574,4.607,1.3,7.143,2.2
			c16.402,5.825,25.788,21.326,34.866,36.316c9.076,14.988,17.648,29.145,32.598,34.387c26.141,9.168,45.781-8.871,60.124-22.041
			c6.923-6.357,11.925-10.95,16.031-10.95c12.148,0,23.935,20.533,24.431,21.407c0.272,0.48,0.103,1.09-0.377,1.363
			c-0.479,0.272-1.091,0.104-1.363-0.376c-0.115-0.204-11.702-20.394-22.69-20.394c-3.328,0-8.588,4.83-14.679,10.423
			C786.482,113.261,770.51,127.926,750.287,127.927z M648.607,50.789c-6.087,0-11.044,1.485-14.434,4.45
			c-3.239,2.832-4.688,6.82-3.879,10.668c0.758,3.597,3.296,6.319,6.965,7.469c5.746,1.8,11.293,0.026,15.622-4.994
			c3.278-3.802,5.712-9.391,6.634-16.262C655.592,51.232,651.931,50.789,648.607,50.789z"/>
		<path style="clip-path:url(#SVGID_00000085935692546050470640000001487885901199531964_);fill:#C05550;" d="M-10.776,69.687
			c-0.256,0-0.512-0.098-0.707-0.293c-0.391-0.391-0.391-1.023,0-1.414c11.999-12,26.929-21.828,42.039-27.674
			c16.339-6.322,32.375-7.929,46.372-4.648c5.72,1.341,10.328,3.133,13.974,5.182c2.282-5.115,6.619-10.184,13.949-14.031
			c7.263-3.812,15.491-7.091,24.202-10.563c21.223-8.459,45.278-18.047,66.741-39.51c0.391-0.391,1.023-0.391,1.414,0
			s0.391,1.023,0,1.414c-21.754,21.754-46.012,31.423-67.414,39.954c-8.661,3.452-16.842,6.713-24.013,10.476
			c-6.979,3.663-11.051,8.48-13.148,13.297c7.076,4.52,9.924,10.049,9.973,14.717c0.038,3.556-1.654,6.481-4.114,7.114
			c-3.396,0.874-6.717-1.497-8.464-6.035c-1.473-3.827-1.849-9.342,0.133-14.973c-3.51-1.999-8.019-3.765-13.689-5.094
			c-26.53-6.22-61.307,6.555-86.54,31.789C-10.264,69.589-10.52,69.687-10.776,69.687z M91.909,43.766
			c-1.657,4.985-1.314,9.812-0.015,13.188c1.081,2.809,3.252,5.554,6.1,4.816c1.322-0.339,2.644-2.219,2.612-5.155
			C100.563,52.58,98.069,47.799,91.909,43.766z"/>
		<path style="clip-path:url(#SVGID_00000085935692546050470640000001487885901199531964_);fill:#FFD18D;" d="M114.204,196.137
			c-2.396,2.396,2.68,10.088,6.662,6.106C124.848,198.261,117.883,192.458,114.204,196.137z"/>
		<path style="clip-path:url(#SVGID_00000085935692546050470640000001487885901199531964_);fill:#9DBEAA;" d="M141.192,169.609
			c0,6.188,10.884,5.84,10.884,0C152.076,163.769,141.192,163.421,141.192,169.609z"/>
		<path style="clip-path:url(#SVGID_00000085935692546050470640000001487885901199531964_);fill:#FFD18D;" d="M200.156,167.161
			c1.398,5.719,10.875,0.005,8.007-2.863C205.295,161.429,198.758,161.442,200.156,167.161z"/>
		<path style="clip-path:url(#SVGID_00000085935692546050470640000001487885901199531964_);fill:#FFD18D;" d="M220.853,199.771
			c-1.925,7.565,12.774,9.465,12.774,3.08S222.582,192.978,220.853,199.771z"/>
		<path style="clip-path:url(#SVGID_00000085935692546050470640000001487885901199531964_);fill:#FFD18D;" d="M146.626,361.773
			c-2.336,9.178,15.499,11.483,15.499,3.737C162.125,357.763,148.723,353.531,146.626,361.773z"/>
		<path style="clip-path:url(#SVGID_00000085935692546050470640000001487885901199531964_);fill:#FF8966;" d="M158.394,204.695
			c0,4.957,9.469,4.613,9.469,0.012S158.394,200.473,158.394,204.695z"/>
		<path style="clip-path:url(#SVGID_00000085935692546050470640000001487885901199531964_);fill:#FF8966;" d="M203.814,355.636
			c0,6.014,11.489,5.597,11.489,0.014C215.303,350.067,203.814,350.513,203.814,355.636z"/>
		<path style="clip-path:url(#SVGID_00000085935692546050470640000001487885901199531964_);fill:#9DBEAA;" d="M201.316,225.345
			c-6.303,2.238,1.339,13.112,6.278,8.173C212.533,228.579,205.722,223.78,201.316,225.345z"/>
		<path style="clip-path:url(#SVGID_00000085935692546050470640000001487885901199531964_);fill:#FFE8D4;" d="M246.111,238.512
			c-5.14,1.836-2.57,9.142,2.387,6.939C253.454,243.248,251.251,236.676,246.111,238.512z"/>
		<path style="clip-path:url(#SVGID_00000085935692546050470640000001487885901199531964_);fill:#FFD2B4;" d="M480.928,121.899
			c-1.457,6.386,22.097,8.453,25.953-0.587C510.737,112.272,485.534,101.709,480.928,121.899z"/>
		<path style="clip-path:url(#SVGID_00000085935692546050470640000001487885901199531964_);fill:#FFE8D4;" d="M108.307,324.987
			c-1.457,6.386,22.097,8.453,25.953-0.587C138.116,315.36,112.913,304.797,108.307,324.987z"/>
		<path style="clip-path:url(#SVGID_00000085935692546050470640000001487885901199531964_);fill:#FF8966;" d="M529.457,119.107
			c-6.973,2.115-2.22,10.853,3.013,8.995C537.704,126.243,535.325,117.326,529.457,119.107z"/>
		<path style="clip-path:url(#SVGID_00000085935692546050470640000001487885901199531964_);fill:#9DBEAA;" d="M465.468,171.592
			c4.117-0.781,12.368-18.76,8.799-20.337c-3.569-1.577-7.72,7.138-7.72,7.138s-0.165-8.936-2.987-8.936s-2.573,9.351-2.573,9.351
			s-5.705-10.675-9.357-8.171C447.976,153.143,460.654,172.505,465.468,171.592z"/>
		<path style="clip-path:url(#SVGID_00000085935692546050470640000001487885901199531964_);fill:#FF8966;" d="M274.558,463.37
			c-2.182,3.589,4.092,21.649,7.338,19.6c3.247-2.049-0.394-9.95-0.394-9.95s6.381,4.54,8.071,2.267
			c1.691-2.272-5.033-6.962-5.033-6.962s10.922,0.989,11.349-3.262C296.318,460.813,276.376,460.38,274.558,463.37z"/>
		<path style="clip-path:url(#SVGID_00000085935692546050470640000001487885901199531964_);fill:#9DBEAA;" d="M71.979,469.457
			c3.024,1.55,13.379-31.883,13.379-46.546c0-14.663-0.363-25.231-6.69-24.148c-6.326,1.082-8.274,30.903-8.274,30.903
			s1.194-21.076-6.915-21.076s-5.637,23.602-5.637,23.602S50.1,406.6,43.51,408.577C36.92,410.555,47.067,456.691,71.979,469.457z"
			/>
		<g style="clip-path:url(#SVGID_00000085935692546050470640000001487885901199531964_);">
			<path style="fill:#FF8966;" d="M-9.584,238.26c-0.006,0-0.011,0-0.017,0c-0.374-0.008-0.687-0.286-0.737-0.657
				c-1.123-8.29,1.001-17.33,6.494-27.636c6.904-12.953,19.435-28.197,37.245-45.307c36.964-35.511,81.814-53.016,114.562-65.797
				c3.827-1.493,7.49-2.923,10.956-4.31c31.996-12.799,35.18-20.397,35.208-20.472c0.128-0.337,0.478-0.547,0.834-0.49
				c0.357,0.057,0.627,0.349,0.643,0.709c0.051,1.142,0.772,28.332-40.408,60.602c-33.399,26.172-64.46,40.432-97.344,55.529
				c-7.654,3.514-15.568,7.147-23.446,10.914c-39.694,18.981-43.212,36.118-43.243,36.288C-8.902,237.996-9.217,238.26-9.584,238.26
				z M193.93,76.884c-3.014,3.268-11.415,9.868-34.446,19.08c-3.471,1.388-7.137,2.819-10.968,4.314
				c-32.629,12.735-77.316,30.175-114.061,65.477c-40.73,39.13-44.034,59.374-43.615,68.329
				c2.835-6.011,12.271-19.461,42.911-34.113c7.888-3.772,15.808-7.408,23.467-10.924c32.801-15.059,63.782-29.282,97.041-55.344
				C187.705,107.495,193.08,84.353,193.93,76.884z"/>
			<path style="fill:#FF8966;" d="M-9.584,238.261c-0.012,0-0.024,0-0.036-0.001c-0.42-0.02-0.744-0.376-0.724-0.795
				c0.043-0.912,1.495-22.625,40.765-48.462c10.576-6.959,25.447-14.978,42.666-24.263c47.077-25.386,105.666-56.981,121.066-90.722
				c0.174-0.383,0.627-0.551,1.007-0.376c0.382,0.174,0.551,0.625,0.376,1.007c-15.612,34.206-74.45,65.934-121.728,91.429
				c-17.188,9.269-32.031,17.273-42.552,24.195c-20.231,13.311-30.064,25.513-34.75,33.405c-5.026,8.464-5.329,13.805-5.332,13.858
				C-8.844,237.944-9.18,238.261-9.584,238.261z"/>
			<path style="fill:#FF8966;" d="M62.72,322.812c-0.253,0-0.491-0.126-0.632-0.338C48.147,301.6,21.26,282.793,3.468,270.349
				l-0.881-0.616c-18.127-12.682-11.064-34.689-10.99-34.91c0.083-0.25,0.29-0.44,0.547-0.5c0.257-0.061,0.526,0.016,0.713,0.202
				c5.537,5.537,12.163,8.62,19.835,12.189c11.145,5.184,23.775,11.061,36.946,26.371c7.094,8.246,15.669,21.085,16.239,35.426
				c0.344,8.655-2.374,13.698-2.49,13.908c-0.128,0.232-0.368,0.382-0.633,0.393C62.741,322.812,62.73,322.812,62.72,322.812z
				 M-7.288,236.499c-1.137,4.634-4.063,21.626,10.747,31.987l0.881,0.616c17.562,12.284,43.939,30.733,58.235,51.384
				c1.79-4.663,6.477-22.503-14.091-46.411c-12.957-15.061-25.43-20.864-36.435-25.984C4.972,244.8-1.735,241.68-7.288,236.499z"/>
			<path style="fill:#FF8966;" d="M190.884,282.815c-33.424,0.001-112.453-19.087-144.989-36.159
				c-19.137-10.041-32.6-12.472-40.525-12.744c-8.552-0.294-12.657,1.802-12.697,1.823c-0.321,0.169-0.719,0.087-0.948-0.197
				c-0.227-0.284-0.223-0.689,0.012-0.967c8.29-9.786,23.352-12.949,47.401-9.958c21.764,2.708,48.553,10.098,78.777,18.761
				c59.578,17.076,82.555,37.164,82.781,37.365c0.214,0.191,0.302,0.486,0.228,0.763c-0.074,0.278-0.298,0.489-0.579,0.548
				C197.865,282.569,194.666,282.814,190.884,282.815z M3.745,232.32c8.839,0,22.868,2.501,42.857,12.989
				c37.848,19.859,126.963,39.031,151.813,35.534c-5.514-4.302-29.447-21.254-80.918-36.007
				c-59.865-17.157-104.14-28.103-122.41-11.545C-2.97,232.794-0.105,232.32,3.745,232.32z"/>
			<path style="fill:#FF8966;" d="M62.72,322.811c-0.018,0-0.036-0.001-0.055-0.001c-0.418-0.03-0.734-0.394-0.705-0.813
				c0.004-0.053,0.337-5.412-2.646-13.078c-2.756-7.082-8.988-17.639-23.029-27.716c-5.785-4.152-11.152-7.731-15.888-10.889
				C2.413,258.322-8.442,251.083-8.442,235.062c0-0.203,0.081-0.398,0.226-0.541c0.453-0.449,11.723-10.87,65.009-0.205
				c50.799,10.167,105.712,31.521,138.521,44.279l5.152,2.001c0.391,0.152,0.586,0.593,0.434,0.984
				c-0.152,0.393-0.593,0.585-0.984,0.435l-5.152-2.002c-32.763-12.741-87.599-34.065-138.269-44.206
				c-48.5-9.706-61.615-1.741-63.413-0.391c0.155,14.957,10.143,21.617,28.162,33.632c4.746,3.165,10.125,6.752,15.931,10.919
				c14.389,10.327,20.773,21.195,23.596,28.494c3.079,7.961,2.726,13.416,2.709,13.644C63.449,322.507,63.115,322.811,62.72,322.811
				z"/>
		</g>
		<g style="clip-path:url(#SVGID_00000085935692546050470640000001487885901199531964_);">
			<path style="fill:#437B78;" d="M737.87,512.025c-0.059,0-0.12-0.009-0.18-0.027c-0.159-0.05-16.304-5.226-43.097-23.997
				c-24.692-17.299-63.783-50.034-109.79-107.752c-0.001-0.002-0.002-0.004-0.004-0.006c-19.368-24.738-23.899-55.407-24.289-76.778
				c-0.422-23.133,3.785-40.67,3.828-40.844c0.06-0.248,0.27-0.43,0.524-0.455c0.253-0.023,0.495,0.114,0.603,0.345
				c22.705,48.961,20.591,112.836,20.417,117.166c25.349,31.784,64.863,76.141,109.399,107.342
				c26.643,18.665,42.609,23.785,42.768,23.834c0.315,0.099,0.492,0.436,0.393,0.752
				C738.362,511.861,738.125,512.025,737.87,512.025z M565.122,264.647c-1.029,4.963-3.757,20.033-3.411,38.829
				c0.383,20.8,4.717,50.476,23.021,74.711C585.019,367.731,585.568,310.129,565.122,264.647z"/>
			<path style="fill:#437B78;" d="M673.364,471.729c-0.108,0-0.216-0.03-0.312-0.087c-0.156-0.095-0.261-0.256-0.284-0.437
				c-0.023-0.177-2.181-18.03,2.471-41.946c4.294-22.074,15.432-53.995,44.11-80.715c0.186-0.172,0.459-0.211,0.685-0.094
				c0.225,0.116,0.352,0.362,0.319,0.612c-0.037,0.282-3.855,28.472-9.779,58.384c-6.362,32.126-21.578,58.545-37.003,64.245
				C673.504,471.717,673.434,471.729,673.364,471.729z M718.932,350.587c-27.526,26.258-38.317,57.323-42.515,78.901
				c-4.073,20.937-2.889,37.15-2.539,40.797c14.806-6.116,29.336-31.84,35.521-63.071
				C714.487,381.518,718.019,357.098,718.932,350.587z"/>
			<path style="fill:#437B78;" d="M565.956,487.292c-14.576,0-23.809-2.566-23.972-2.613c-0.22-0.063-0.385-0.246-0.425-0.472
				c-0.04-0.226,0.052-0.455,0.237-0.59c9.838-7.167,31.973-18.306,61.98-26.113c30.55-7.95,49.688-4.185,49.877-4.146
				c0.196,0.04,0.359,0.174,0.434,0.359c0.076,0.184,0.055,0.394-0.055,0.56c-0.354,0.533-9.113,13.21-45.908,25.888
				C591.994,485.725,577.345,487.292,565.956,487.292z M543.56,483.836c5.897,1.361,32.048,6.267,64.175-4.803
				c31.326-10.794,42.217-21.734,44.702-24.661c-4.235-0.633-21.976-2.571-48.359,4.294
				C575.268,466.161,553.787,476.721,543.56,483.836z"/>
			<path style="fill:#437B78;" d="M541.563,419.104c-29.935,0-40.08-9.66-40.552-10.128c-0.141-0.14-0.204-0.34-0.168-0.535
				c0.035-0.195,0.165-0.359,0.346-0.44c0.328-0.146,33.216-14.546,67.008-12.041c14.817,1.097,25.323,4.371,31.527,6.923
				c6.755,2.779,9.954,5.273,10.087,5.378c0.166,0.131,0.251,0.34,0.223,0.55c-0.027,0.209-0.164,0.389-0.359,0.473
				c-0.535,0.229-13.572,5.651-54.187,9.187C550.431,418.91,545.799,419.104,541.563,419.104z M502.569,408.72
				c1.359,1.05,4.736,3.303,10.801,5.298c7.581,2.494,21.026,5.085,42.013,3.257c34.154-2.973,48.952-7.388,52.774-8.709
				c-3.378-2.23-16.233-9.646-40.05-11.41C537.722,394.909,508.038,406.458,502.569,408.72z"/>
			<path style="fill:#437B78;" d="M628.802,430.364c-0.114,0-0.227-0.032-0.323-0.094c-0.135-0.087-0.23-0.223-0.263-0.38
				c-0.08-0.372-7.868-37.61,3.002-70.728c10.853-33.063,31.708-59.988,31.917-60.255c0.15-0.192,0.401-0.275,0.633-0.209
				c0.234,0.065,0.406,0.265,0.435,0.507c0.018,0.155,1.769,15.848-5.103,45.451c-2.198,9.467-3.973,19.085-5.689,28.387
				c-5.355,29.012-9.98,54.067-24.477,57.307C628.889,430.359,628.846,430.364,628.802,430.364z M663.127,300.91
				c-4.208,5.684-21.312,29.814-30.769,58.627c-10.012,30.501-4.045,64.552-3.09,69.493c13.261-3.641,17.762-28.03,22.963-56.206
				c1.72-9.315,3.497-18.947,5.701-28.441C663.522,320.296,663.372,305.527,663.127,300.91z"/>
			<path style="fill:#437B78;" d="M673.363,471.729c-0.088,0-0.179-0.02-0.264-0.062c-0.297-0.146-0.419-0.505-0.273-0.803
				c0.105-0.213,10.618-21.773,23.131-60.921c12.543-39.241,23.159-61.01,23.265-61.226c0.145-0.296,0.504-0.422,0.803-0.273
				c0.297,0.146,0.419,0.505,0.273,0.803c-0.105,0.214-10.686,21.915-23.198,61.062c-12.543,39.241-23.092,60.871-23.198,61.085
				C673.798,471.606,673.585,471.729,673.363,471.729z"/>
			<path style="fill:#437B78;" d="M537.018,411.5c-21.506,0-35.503-2.328-35.686-2.359c-0.327-0.056-0.546-0.366-0.491-0.692
				c0.056-0.326,0.367-0.548,0.692-0.49c0.238,0.041,24.284,4.036,57.857,1.5c33.705-2.547,49.935-1.337,50.096-1.325
				c0.33,0.026,0.577,0.315,0.551,0.645c-0.027,0.33-0.309,0.564-0.645,0.551c-0.159-0.013-16.314-1.213-49.912,1.325
				C551.375,411.267,543.821,411.5,537.018,411.5z"/>
			<path style="fill:#437B78;" d="M628.802,430.364c-0.167,0-0.333-0.069-0.452-0.205c-0.217-0.249-0.192-0.626,0.056-0.844
				c0.116-0.105,8.765-8.357,13.584-50.519c4.888-42.775,20.908-79.397,21.07-79.762c0.133-0.304,0.488-0.439,0.79-0.306
				c0.303,0.134,0.44,0.488,0.306,0.791c-0.16,0.363-16.108,36.827-20.974,79.413c-4.905,42.916-13.616,50.963-13.984,51.285
				C629.082,430.315,628.942,430.364,628.802,430.364z"/>
			<path style="fill:#437B78;" d="M585.273,379.217c-0.243,0-0.472-0.148-0.562-0.39c-0.122-0.324-12.119-32.716-12.119-57.946
				c0-25.049-8.171-57.645-8.254-57.971c-0.081-0.321,0.113-0.647,0.435-0.729c0.318-0.081,0.648,0.112,0.729,0.434
				c0.083,0.328,8.29,33.069,8.29,58.266c0,25.016,11.922,57.204,12.042,57.526c0.116,0.31-0.041,0.656-0.352,0.772
				C585.414,379.205,585.343,379.217,585.273,379.217z"/>
			<path style="fill:#437B78;" d="M542.15,484.702c-0.326,0-0.594-0.262-0.6-0.589c-0.006-0.331,0.258-0.604,0.589-0.611
				c0.251-0.005,25.396-0.543,53.068-7.288c17.736-4.323,32.906-11.577,43.981-16.873c6.255-2.991,11.195-5.354,14.225-5.982
				c0.327-0.066,0.643,0.141,0.709,0.465c0.067,0.324-0.141,0.642-0.465,0.709c-2.887,0.599-7.769,2.934-13.951,5.889
				c-11.124,5.319-26.357,12.605-44.214,16.957c-27.807,6.778-53.078,7.318-53.33,7.323
				C542.157,484.702,542.153,484.702,542.15,484.702z"/>
		</g>
		<path style="clip-path:url(#SVGID_00000085935692546050470640000001487885901199531964_);fill:#FF8966;" d="M735.871,254.253
			c-32.012,0.001-58.255-10.762-79.649-32.524c-24.586-25.008-39.332-61.054-52.342-92.857
			c-16.07-39.285-29.95-73.212-57.115-77.248c-39.509-5.873-73.057,16.246-105.499,37.634c-27.584,18.183-53.637,35.358-82.2,35.358
			c-10.837,0-19.713-4.132-26.38-12.281c-11.526-14.088-16.524-39.751-14.853-76.274c1.239-27.094,5.897-50.394,5.944-50.626
			c0.109-0.541,0.632-0.896,1.178-0.782c0.541,0.109,0.891,0.637,0.782,1.178c-0.186,0.921-18.294,92.494,8.498,125.238
			c6.269,7.662,14.623,11.547,24.831,11.547c27.962,0,53.773-17.015,81.099-35.028c32.757-21.594,66.638-43.92,106.893-37.942
			c28.293,4.203,42.371,38.619,58.673,78.47c12.94,31.632,27.607,67.485,51.917,92.212c27.824,28.301,64.079,37.649,110.828,28.575
			c0.542-0.104,1.066,0.249,1.172,0.791c0.105,0.542-0.249,1.067-0.791,1.172C757.237,253.12,746.248,254.252,735.871,254.253z"/>
	</g>
</g>
</svg>
